/* XPM */
static char *firecheese_fire_0_removebg_preview_16_11zon1741442830[] = {
/* columns rows colors chars-per-pixel */
"60 60 205 2 ",
"   c #000000",
".  c #0B0503",
"X  c #0D0A09",
"o  c #1A0100",
"O  c #130A07",
"+  c #140F0B",
"@  c #1C0D08",
"#  c #120603",
"$  c #161310",
"%  c #1B1715",
"&  c #270804",
"*  c #360D02",
"=  c #23130A",
"-  c #311508",
";  c #39170C",
":  c #231E15",
">  c #331A14",
",  c #27221B",
"<  c #29241C",
"1  c #31231A",
"2  c #392218",
"3  c #362C1D",
"4  c #3B3326",
"5  c #2C2727",
"6  c #431105",
"7  c #571C0A",
"8  c #4D2612",
"9  c #45271A",
"0  c #572716",
"q  c #5D3419",
"w  c #5D280A",
"e  c #64351C",
"r  c #702C0E",
"t  c #4A3B2E",
"y  c #453421",
"u  c #5B3622",
"i  c #713E21",
"p  c #683A25",
"a  c #77411A",
"s  c #4E4634",
"d  c #5B4F35",
"f  c #67422B",
"g  c #794827",
"h  c #7F4F39",
"j  c #6F5032",
"k  c #60503F",
"l  c #645136",
"z  c #7F5532",
"x  c #6C5C4A",
"c  c #725B45",
"v  c #7D6C4D",
"b  c #863D12",
"n  c #824218",
"m  c #95481E",
"M  c #804C2D",
"N  c #8F522D",
"B  c #9D572C",
"V  c #97592C",
"C  c #9B5030",
"Z  c #88603C",
"A  c #996739",
"S  c #9C6434",
"D  c #A56035",
"F  c #A8783B",
"G  c #E87F00",
"H  c #866648",
"J  c #926E46",
"K  c #897454",
"L  c #967555",
"P  c #92764E",
"I  c #A06940",
"U  c #AD6C4F",
"Y  c #A47A45",
"T  c #AA7C44",
"R  c #B27B44",
"E  c #B17C4B",
"W  c #AE7B54",
"Q  c #DF8A07",
"!  c #EB8808",
"~  c #F08301",
"^  c #E29014",
"/  c #E99214",
"(  c #F49712",
")  c #E49C2B",
"_  c #EB9A23",
"`  c #EBA52D",
"'  c #EEA73C",
"]  c #E6A93C",
"[  c #F0AC32",
"{  c #F2B43C",
"}  c #B98046",
"|  c #BC8C4F",
" . c #B2864D",
".. c #AC875E",
"X. c #B48453",
"o. c #B88157",
"O. c #BA9358",
"+. c #B29059",
"@. c #9B846C",
"#. c #AB8E68",
"$. c #A28A62",
"%. c #BE9961",
"&. c #BC9C6C",
"*. c #B59363",
"=. c #A79270",
"-. c #B69B74",
";. c #C8965C",
":. c #C08D49",
">. c #D7A658",
",. c #EEAD43",
"<. c #EEB54F",
"1. c #F2B646",
"2. c #F8BC49",
"3. c #F0B756",
"4. c #F1BC5C",
"5. c #F6BF52",
"6. c #C89C65",
"7. c #C39775",
"8. c #C7A669",
"9. c #D2A668",
"0. c #C0A977",
"q. c #CFA970",
"w. c #C2A979",
"e. c #C9AB78",
"r. c #C0A470",
"t. c #D7AF79",
"y. c #D3AA77",
"u. c #CFB37A",
"i. c #D8BA7E",
"p. c #E3B874",
"a. c #E3B069",
"s. c #F4C259",
"d. c #F6C264",
"f. c #F2C36A",
"g. c #F7C96A",
"h. c #E8C37E",
"j. c #FBCA75",
"k. c #F1C67C",
"l. c #F4CA7E",
"z. c #F9CB79",
"x. c #F2C876",
"c. c #F5D27D",
"v. c #F3D275",
"b. c #BDA981",
"n. c #CFAF85",
"m. c #C3AE8D",
"M. c #CAB380",
"N. c #C8B488",
"B. c #DEBE88",
"V. c #D1B788",
"C. c #CBB590",
"Z. c #C8B798",
"A. c #C6BF9E",
"S. c #CABB93",
"D. c #D1BC90",
"F. c #CFC098",
"G. c #DEC394",
"H. c #D2C19F",
"J. c #E6C485",
"K. c #F5CD84",
"L. c #FACE82",
"P. c #F0CC89",
"I. c #F0C681",
"U. c #F4D285",
"Y. c #FDD684",
"T. c #F6D48D",
"R. c #FAD38C",
"E. c #FDDA8A",
"W. c #ECCB95",
"Q. c #F5D495",
"!. c #F9D492",
"~. c #FDDE91",
"^. c #F5D39B",
"/. c #F4D89D",
"(. c #FADC9C",
"). c #E8D499",
"_. c #FCE19B",
"`. c #CBC4A6",
"'. c #CDC7B1",
"]. c #D6CDB4",
"[. c #D9CDB7",
"{. c #DDD7B6",
"}. c #E0CAA0",
"|. c #E6D1A5",
" X c #E8D7AA",
".X c #ECDAAA",
"XX c #F0D6A6",
"oX c #F6DDA4",
"OX c #F8DEA0",
"+X c #EFDEB1",
"@X c #FBE2A4",
"#X c #FEEAA7",
"$X c #FBE4AC",
"%X c #F5E0B1",
"&X c #FBE5B6",
"*X c #FFEDB1",
"=X c #F9E8BD",
"-X c #F3E3BA",
";X c #FFF1B7",
":X c #FFF4BF",
">X c #F3E6C0",
",X c #FBEAC1",
"<X c #F9EDC9",
"1X c #FFFBCE",
"2X c #FCF0D1",
/* pixels */
"                                                          t t                                                           ",
"                                                          4                                                             ",
"                                            . $         X k         ; +                                                 ",
"                                              +           p O     - U 1                                                 ",
"                                                          - 0     9 8                                                   ",
"                                                          @ J $   O M +                                                 ",
"                                                          3 M M     u f         6 -                                     ",
"                                                        = M @ M 8     =       . B f                                     ",
"                                          2 %         $ A g O j X.+   .       & R M                                     ",
"                                      , g W 9         y ;.X.Z -.u.J H e .     u >.D * 7 -                               ",
"                                    . L 6.J &         c a.Y A S.`.O.&.S V t   j 9.E m m @                               ",
"                                    . M Z B p         . Z D X.S.'.0.e.y.^.H > e e.w.| X.X                               ",
"                                    3 Z 0 n 7.5   @ ; > &.8.0.S.].S.O.Y .X=.- * #.[.&.$..                               ",
"                                    K r.6 7 D x   . & N D.V.w.Z.`.N.| n G.S.q w -.[.Z.#..                               ",
"                                    H Y * 0 r 7.8 &   q G.e.b.'.S.O.F | J.B.W a N.A.'.[.k                               ",
"                                    g S > ; r y.o.7 o g u.r.S.F.;.q.| | I.;.D Y V.n.`.[.A.$                             ",
"                                    a D ; o 7 6.T 0 6 N %.e.C.n.E n.M.9.9.T T %.N.w.`.F.|.t                             ",
"                                    N 6.p # i 6.R r & h ,X%X X|.W.|. X XV.B.B.G.H.S.A.F.6.1                             ",
"                                  8 B V.b.H T F 9.R o K 1X&X&X$X$X=X2X2X<X,X,X,X=X<X|...-                               ",
"                                O E &.`.[.].8.V R B L ).$XXXoX$X$X&X,X>X>X>X<X<X+X,X+XR @                               ",
"                                # | i.C.Z.m.X.B b S *XE.~.@X%X=X$XoX.X+X=X>X<X<X-X=X&Xt.1                               ",
"                                # E 8.r.b.F. .F X.J.@XY.<.p.$X$XoXoXoX&X&X=X,X-X-X-X:Xl                                 ",
"                                9 R u.6.r.F. .u.:X#X$Xf.] x.@X@X$X%XoXoXoX@X%XoX&X;X&X,                                 ",
"                                p y.D.8.%.u.H.;X@XU.c.c.(.$X$X$X@XOXOX(.(.oX^./.$XC.,                                   ",
"                                L G.F.| F G.*Xv.x.5.1.v.@X-X$X(.(._.@X/.(.(.Q.^.@X@.  5                                 ",
"                                -.{.F.A r B.#Xs.g.Y.c.c.E._.oXQ.(.(.(._._.Q.^.oX!./.|.H.                                ",
"                              X N.B.+.A S l.c.E._._.~.3.s.E.@X/.(.(.@X(./.^.R.f.c.(.$XW.X                               ",
"                                2 > D /.;X_.U.U.E.oXU.<.s.T.@XQ.Q.(.(.(.^.OX4.! 3.(.(.OX<                               ",
"                                  X XX;X@X#X$Xv.v.@X%Xv.4.T.@XT.!.R.f.4.E.(.l.,.j./.^.@Xs                               ",
"                                  =.*X@Xs.f.~.U.v.Q.2X$XT.(.T.U.R.3.^ [ g.,.U.@X@X!.R._.H                               ",
"                                k @X_.c.] s.Y.$X=X&X@X@X@X_.U.T.R.) ( 2.) G ,.@XT.L.K.Y.#.                              ",
"                              x #XE.c.g.s.s.v.$X=X!.g.U.E.,.' g.E.' _ d.` G 1.!.K.L.K.E.i.                              ",
"                            % ^.Y.f.x.Y.R.K.U.@XoXc.g.Y.<.G G [ _.j.` f.K.,.j./.U.R.R.R.R.,                             ",
"                            % ^.z.k.l.!.(.@XoXOX!.T.P.!.) ! ! ` R.@Xc.l.&X@X(.Q.R.K.k.Y._.4                             ",
"                              $.E.k.k.k.!.oXOXR.T.(.$X_.^ ~ / [ c.@XoX@X(.Q.Q.R.K.k.Y.L.v .                             ",
"                              < R.L.k.k.k.K.R.k.T.Q.oX_.` ~ _ d.!./.^.^.R.c.l.U.Y.Y.*.<                                 ",
"                                &.E.I.k.k.k.U.I.!.T.T.(.c.d.z.(.@X^.R.c.l.k.L.E.q.t                                     ",
"                                c ~.l.k.k.k.K.R.R.l.3.f.(.@X$XoX/.Q.R.K.K.E.K.H                                         ",
"                                % !.Y.l.k.k.k.U.Q.l.^ ^ L.Q.(.Q.R.R.T.~.E.*.1                                           ",
"                                  x a.s.K.K.4.<.!.z.! / L.!.R.K.U.E.~.h.d                                               ",
"                                    y j.K.K.' Q d.z.) 1.R.^.!.U.E.R.P $                                                 ",
"                                      B.(.z.^ ! [ ^.K.j.K.R.E.E.6.3                                                     ",
"                                      e.@XK.` ! 3.R.R.4.j.~.p.l                                                         ",
"                                      V.!.K.l.f.K.l.j.{ 4.K X                                                           ",
"                                    1 W.K.h.J.P.L.R.L.F :                                                               ",
"                                    k Q.p.p.p.k.P.*.4                                                                   ",
"                                    s Y.a.f.g.6.t                                                                       ",
"                                    : p.g.>.d .                                                                         ",
"                                      ..J X                                                                             ",
"                                                                                                                        ",
"                                                                                                                        ",
"                                                                                                                        ",
"                                                                                                                        ",
"                                                                                                                        ",
"                                                                                                                        ",
"                                                                                                                        ",
"                                                                                                                        ",
"                                                                                                                        ",
"                                                                                                                        ",
"                                                                                                                        "
};
