/* XPM */
static char *firecheese_fire_1_removebg_preview_15_11zon1741442830[] = {
/* columns rows colors chars-per-pixel */
"60 60 200 2 ",
"   c #000000",
".  c #0C0706",
"X  c #0E0B0A",
"o  c #150603",
"O  c #14110E",
"+  c #1D1009",
"@  c #181411",
"#  c #2F0E06",
"$  c #360700",
"%  c #3A0D03",
"&  c #26110B",
"*  c #371409",
"=  c #251610",
"-  c #261B14",
";  c #381B15",
":  c #262019",
">  c #2D241A",
",  c #3A2C1E",
"<  c #352414",
"1  c #2F2920",
"2  c #4A190B",
"3  c #531E06",
"4  c #58270A",
"5  c #452618",
"6  c #4A2B18",
"7  c #5C2B15",
"8  c #5D341E",
"9  c #6A2C0B",
"0  c #73290D",
"q  c #632F13",
"w  c #68371B",
"e  c #7A3512",
"r  c #71390E",
"t  c #473728",
"y  c #503523",
"u  c #513E20",
"i  c #653D25",
"p  c #6A3127",
"a  c #5D412D",
"s  c #4D4236",
"d  c #5A4B3E",
"f  c #5A4732",
"g  c #7E4829",
"h  c #764A2B",
"j  c #695436",
"k  c #755534",
"l  c #7A643E",
"z  c #695946",
"x  c #766652",
"c  c #83381C",
"v  c #853F0D",
"b  c #8D431E",
"n  c #8D5023",
"m  c #93582A",
"M  c #855933",
"N  c #8E5937",
"B  c #9E5F3A",
"V  c #9B5C35",
"C  c #976837",
"Z  c #A1682F",
"A  c #A47236",
"S  c #B16A35",
"D  c #876C45",
"F  c #936941",
"G  c #9F714C",
"H  c #94734A",
"J  c #8A7052",
"K  c #947850",
"L  c #A97740",
"P  c #A47645",
"I  c #B57D46",
"U  c #AA7C55",
"Y  c #DE9619",
"T  c #E68400",
"R  c #EB8100",
"E  c #E48807",
"W  c #ED8A09",
"Q  c #EA900D",
"!  c #E28F11",
"~  c #EB961A",
"^  c #E49E33",
"/  c #E49925",
"(  c #E7A029",
")  c #EAA72C",
"_  c #EBAA3A",
"`  c #F2AA32",
"'  c #9E845D",
"]  c #BC8E4D",
"[  c #B48A50",
"{  c #B78E5B",
"}  c #B48250",
"|  c #BD955B",
" . c #AF8248",
".. c #8F8778",
"X. c #AA8864",
"o. c #AA936C",
"O. c #B69460",
"+. c #BE9762",
"@. c #B89967",
"#. c #B39C78",
"$. c #BFA168",
"%. c #BBA27A",
"&. c #C48D58",
"*. c #C5925D",
"=. c #D0A44E",
"-. c #ECAC44",
";. c #F4AC44",
":. c #F1B550",
">. c #F1BC57",
",. c #F3BD5E",
"<. c #FBBD5A",
"1. c #F8B74A",
"2. c #C39E62",
"3. c #C19C6C",
"4. c #CC9D60",
"5. c #CDA167",
"6. c #D7A968",
"7. c #D2A469",
"8. c #C3A573",
"9. c #CAAA7C",
"0. c #C7A677",
"q. c #CFB07C",
"w. c #D6B877",
"e. c #DFB870",
"r. c #DEB57A",
"t. c #EFB963",
"y. c #EBB96B",
"u. c #EABD78",
"i. c #F4C150",
"p. c #F6CA67",
"a. c #F3C369",
"s. c #FCC667",
"d. c #EEC27E",
"f. c #FBC674",
"g. c #F5CC73",
"h. c #F2C67D",
"j. c #F7CA7D",
"k. c #F8D177",
"l. c #F4D37C",
"z. c #BFA889",
"x. c #C6AB85",
"c. c #CCB382",
"v. c #C8B58C",
"b. c #CCBB8E",
"n. c #D6B780",
"m. c #D7BB8C",
"M. c #C6B995",
"N. c #C9BB99",
"B. c #DBBE96",
"V. c #D1BC94",
"C. c #E4BD81",
"Z. c #CBC19B",
"A. c #EEC782",
"S. c #E2C28A",
"D. c #EDC48A",
"F. c #F4CC85",
"G. c #F9CD81",
"H. c #FAD283",
"J. c #F7D987",
"K. c #FEDB83",
"L. c #F5D38C",
"P. c #F9D38B",
"I. c #FEDA8B",
"U. c #F3D384",
"Y. c #E5C99C",
"T. c #F4D493",
"R. c #F8D392",
"E. c #F7D896",
"W. c #FCDA95",
"Q. c #F5D59B",
"!. c #FADC9D",
"~. c #FFE18D",
"^. c #FFE097",
"/. c #FEE49D",
"(. c #CEC2A3",
"). c #D5C4A1",
"_. c #D1C8AA",
"`. c #CBC6B0",
"'. c #D9CFBA",
"]. c #EFDBAD",
"[. c #E3D2AA",
"{. c #F5D7A1",
"}. c #F6DDA2",
"|. c #FBDDA2",
" X c #F5DEA9",
".X c #E4D8B7",
"XX c #FBE2A5",
"oX c #FAE3AC",
"OX c #FEECAE",
"+X c #F3E3B5",
"@X c #FAE6B5",
"#X c #FDEAB7",
"$X c #F6E7BE",
"%X c #FAE9BE",
"&X c #FFF1B7",
"*X c #DAD5CA",
"=X c #F9ECCA",
"-X c #F8E8C2",
";X c #FFF4C5",
":X c #FDF2CA",
/* pixels */
"                                                                                                                        ",
"                                                                                                                        ",
"                                                                                                                        ",
"                                                                                                                        ",
"                                                                                                                        ",
"                                                    - .       & %                 #                                     ",
"                                    = ; o & .       - -     X g m 2 5 5         + V                                     ",
"                                    ; 7 q &         @ t     1 3.@.F G i 6       + G                                     ",
"                                    . - , .         a V o   , ).v.9.D 6 p o     6 +.2 * o                               ",
"                                    ; t ,   > .     & B b n K N.).} i 2 2 *   - } 9.B b *                               ",
"                                  X #.z.@   y 5     . 2 U $.@.x.| n % 6 V w   . U c.{ &.y                               ",
"                                  X B.X.    & p       * @.n.8.c.5.n % q I C .   7 V.b.O.y                               ",
"                                    h 3       k @     y &.{ X.b.m.X.% 4 D.3.o o q z.).x.t                               ",
"                                    8 7       d 1     o P 2.%.N._.%.n r w.9.y w G (.M.).o.t                             ",
"                                    5 M     . t =       M *.v._.b.c.5.I 6.4.A P 8.Z.N.M.0.} X                           ",
"                                    < &.+     u 7     < &.9.`.x.3.b.+.] 4.] 5.$.q.z.N.(.0.M                             ",
"                                    j 6.X.    k *.X   6 5.x.v.[ | c.5.A L I 5.n.v.%.(.Z.m.i                             ",
"                                  t M A S...s N S g N M ].].Y.S.S.[.Y.@.{ n.q.b.b.V.).c.C +                             ",
"                                  U C X.Z..X0.e c e b U ;X@X%X#XoX%X=X:X;X%X-X$X@X-X.X{ 4                               ",
"                                  F B.`.`.Z.N 9 c 0 F C.XX]. X@XoX@X$X$X-X-X=X=X+X%X%X[ h                               ",
"                                  k w.M.`.b.m m 0 9 Q.~.E.oXoX$X+X X{.].$X-X=X=X+X$X-XD.K                               ",
"                                  H w.8.x.V.A Z V +.XXG.,.y.XX$X+XQ.oX X+X-X=X+X+X+X:X' .                               ",
"                                y m.Z.8.*.q.Z | #X&XXXg.^ t./.oXoXoXoX}.{. X+X X+X@X;Xd                                 ",
"                                J '.`.c.7.+.+.OXOXXXJ.l.I.XXoXXXoX}.!./.W.!.}.Q.|.Y.d .                                 ",
"                                z.*X_.8. .*.#XI.k.k.p.p.!.@X|.}.!.!.!.W.^.!.Q.T.XXz.  X                                 ",
"                              . x.[.c. .b 5.OXg.g.l.k.g.J.}.Q.E.!.|.!.XX|.E.Q.Q.E.Q.m.B.@                               ",
"                                g V L } n e.H.I./.!.I.>.>.J.XXE.Q.|.|.|.E.R.R.g.j.!.oXoX1                               ",
"                                  $ A S././.l.U./.@XU.:.<.U./.T.T.!.|.W.T.!.f.Y :.E.!.XXs                               ",
"                                    m.&XXXoXOXl.l.XX#XH.,.U./.L.L.R.h.t.L.}.g.-.t.Q.Q.XXx                               ",
"                                  z &X#Xg.g.W.J.k.U.:XoXU.W.R.U.K.f./ ) s.,.H.|.|.E.P.^.o.                              ",
"                                O Y.XXI.-.i.K.oX%X@XXX|.XXW.j.J.I.^ Q 1.;.T _ }.R.F.j.K.9.                              ",
"                              : S.~.l.g.i.>.g.oX$X!.g.U.W.,._ p.W._ ~ s._ T ` L.F.F.P.P.F.O                             ",
"                              8.~.g.g.H.P.U.U.oXXXH.a.J.a.E T ) I.f.) ,.J._ ,.!.L.F.P.I.W.t                             ",
"                            . C.j.h.F.L.!.XX}.}.E.L.F.|.-.R W ` k.XXH.h.|.}.E.T.L.F.u.F.XXz                             ",
"                              J R.F.h.h.R.XX|.P.U.!.oXoX^ R W ` F.XXXX XW.Q.R.P.G.h.I.P.@.-                             ",
"                              @ F.G.h.h.h.F.F.h.F.T.|.XX_ T ! ,.Q.{.R.T.L.F.F.F.G.I.u.f                                 ",
"                                ' K.F.h.h.d.j.F.R.P.P.E.H.,.g.!. XQ.L.U.F.F.F.I.h.l X                                   ",
"                                t I.j.h.h.j.F.W.L.G.a.t.W.|.XXoXQ.L.P.P.h.G.I.@.:                                       ",
"                                X C.I.A.h.h.A.F.F.L./ ! k.Q.E.T.L.P.R.I.K.y.t                                           ",
"                                  z y.i.U.j.s.:.L.R.~ Q f.Q.T.R.H.H.W.~.K O                                             ",
"                                    , f.P.j.1.E <.G.( _ l.Q.P.G.I.I.2.t                                                 ",
"                                      8.^.G.( T ` P.g.p.F.L.H.K.u.j                                                     ",
"                                      ' /.L._ E ;.F.L.t.f.I.j.D X                                                       ",
"                                      o.W.F.j.a.f.F.G.1.<.| >                                                           ",
"                                    . c.P.d.D.F.A.F.K.=.u                                                               ",
"                                    1 F.u.e.e.u.F.w.j .                                                                 ",
"                                    - u.y.y.h.y.D @                                                                     ",
"                                    . 7.s.t.H -                                                                         ",
"                                      H [ >                                                                             ",
"                                                                                                                        ",
"                                                                                                                        ",
"                                                                                                                        ",
"                                                                                                                        ",
"                                                                                                                        ",
"                                                                                                                        ",
"                                                                                                                        ",
"                                                                                                                        ",
"                                                                                                                        ",
"                                                                                                                        ",
"                                                                                                                        "
};
