/* XPM */
static char *firecheese_fire_2_removebg_preview_14_11zon1741442830[] = {
/* columns rows colors chars-per-pixel */
"60 60 204 2 ",
"   c #000000",
".  c #090504",
"X  c #0F0A07",
"o  c #0F0D0B",
"O  c #100301",
"+  c #160905",
"@  c #17120F",
"#  c #1C110A",
"$  c #1C1712",
"%  c #270E06",
"&  c #2E0901",
"*  c #3A0D01",
"=  c #2D180D",
"-  c #26130C",
";  c #391507",
":  c #211A16",
">  c #251F19",
",  c #2C231E",
"<  c #372519",
"1  c #3B2314",
"2  c #312921",
"3  c #362F29",
"4  c #382D21",
"5  c #481B07",
"6  c #5B1602",
"7  c #5A2009",
"8  c #472710",
"9  c #4A2A1B",
"0  c #402D19",
"q  c #562310",
"w  c #58321A",
"e  c #6F280D",
"r  c #672A18",
"t  c #63341A",
"y  c #7A3719",
"u  c #422D20",
"i  c #463A29",
"p  c #453224",
"a  c #573B27",
"s  c #6F3E26",
"d  c #763422",
"f  c #4E422E",
"g  c #514235",
"h  c #5C523F",
"j  c #66422B",
"k  c #784F2D",
"l  c #7A4121",
"z  c #674834",
"x  c #7D5533",
"c  c #775B3A",
"v  c #6F5137",
"b  c #685941",
"n  c #7D6B54",
"m  c #7A6347",
"M  c #81371B",
"N  c #833F25",
"B  c #915018",
"V  c #8C461A",
"C  c #874D24",
"Z  c #80512E",
"A  c #985728",
"S  c #925028",
"D  c #895631",
"F  c #975F30",
"G  c #92573C",
"H  c #9C6639",
"J  c #896439",
"K  c #A2612B",
"L  c #A66936",
"P  c #AE6A37",
"I  c #AA763F",
"U  c #B0733B",
"Y  c #825E43",
"T  c #986D45",
"R  c #8E7548",
"E  c #95734E",
"W  c #987D5A",
"Q  c #85704D",
"!  c #A97948",
"~  c #B47D47",
"^  c #B37B4E",
"/  c #A27A55",
"(  c #DF8809",
")  c #EC8100",
"_  c #E98C09",
"`  c #E38D16",
"'  c #E79110",
"]  c #E8991E",
"[  c #E49C2F",
"{  c #E39823",
"}  c #ECA225",
"|  c #ECAF3A",
" . c #ECA432",
".. c #F3AA32",
"X. c #A5814D",
"o. c #B98041",
"O. c #AA8B5C",
"+. c #B88751",
"@. c #B78E59",
"#. c #BE9457",
"$. c #948067",
"%. c #A38A6D",
"&. c #B19267",
"*. c #BB9066",
"=. c #B99C6A",
"-. c #BDA36B",
";. c #C3975E",
":. c #CA9D59",
">. c #CD8D53",
",. c #D6A45F",
"<. c #EAAD48",
"1. c #F4B343",
"2. c #F3B34C",
"3. c #F2BD56",
"4. c #C19361",
"5. c #C39B66",
"6. c #C99E63",
"7. c #C09E75",
"8. c #C8A76C",
"9. c #C5A775",
"0. c #C3AF7D",
"q. c #CBAD77",
"w. c #D4A875",
"e. c #CBB379",
"r. c #DBB676",
"t. c #D4A66B",
"y. c #E8B563",
"u. c #F1BF63",
"i. c #FEBF65",
"p. c #E3B977",
"a. c #F8C561",
"s. c #F4C26B",
"d. c #FACB6D",
"f. c #F4C568",
"g. c #F1D06A",
"h. c #ECC17C",
"j. c #F3C476",
"k. c #F6C975",
"l. c #F2C67D",
"z. c #F9CC7C",
"x. c #F5D376",
"c. c #FED075",
"v. c #F2D17A",
"b. c #FBD27E",
"n. c #BFA983",
"m. c #B4A386",
"M. c #C7AD88",
"N. c #CBB584",
"B. c #C8B68D",
"V. c #D2B682",
"C. c #D8B780",
"Z. c #D6BE8A",
"A. c #D6B48F",
"S. c #CEBC9B",
"D. c #C6B493",
"F. c #D4BD92",
"G. c #E2BE90",
"H. c #DEC088",
"J. c #CAC39E",
"K. c #D7C49D",
"L. c #EDC984",
"P. c #F5C783",
"I. c #F4CC82",
"U. c #FBCD83",
"Y. c #F5CD88",
"T. c #F4D283",
"R. c #F8D283",
"E. c #F7D887",
"W. c #FFD886",
"Q. c #F6D38C",
"!. c #FBD48B",
"~. c #ECCA94",
"^. c #F4D592",
"/. c #FAD792",
"(. c #F6DA97",
"). c #FEDD92",
"_. c #F4D499",
"`. c #FBDB9C",
"'. c #FFE192",
"]. c #FBE29A",
"[. c #CAC1A4",
"{. c #D8CAA8",
"}. c #CFCFBB",
"|. c #D6D0B0",
" X c #F8D5A0",
".X c #F4DBA2",
"XX c #F9DEA1",
"oX c #F3DEAA",
"OX c #FBDDA8",
"+X c #EBD5AF",
"@X c #FBE2A5",
"#X c #F8E3AC",
"$X c #FEE8AC",
"%X c #ECE0BD",
"&X c #F6E2B4",
"*X c #FBE5B2",
"=X c #FFEDB2",
"-X c #F5E5BC",
";X c #FCE9BA",
":X c #FFF0B8",
">X c #FBECC3",
",X c #F9EBCC",
"<X c #FDEED1",
"1X c #FFFAC7",
/* pixels */
"                                                                                                                        ",
"                                                                > ,                                                     ",
"                                                                @ 9 #                                                   ",
"                                                                  ; 0                                                   ",
"                                    . X                       X ; ;                 #                                   ",
"                                    u y #                   < D N .             . z q                                   ",
"                                  . q 5 .                 g w.P r .               ^ G .                                 ",
"                                  O &                     / T T k               p 4.^ *                                 ",
"                                    4 >                 = ^ q / 5.&           . W q.+.y & .                             ",
"                                  . a p                 1 ^ ; Z Z.T % . -     > / M.#.! C =                             ",
"                                    j 4       3 o       a ^ 5 a {.9.5 q H 9     x 4.! 0.&.<                             ",
"                                    z :       a >     . D *.c J r.O.w x ~.c     Z 5.X.N.A.u                             ",
"                                    a X @ X   # @     < 6.K.[.e.:.~ 8 w C./   . T F.9.O.^ 1                             ",
"                                    % j D.2   . .     9 r.e.B.-.U S 7 I ~ ! Z E n.[.M.! H %                             ",
"                                    + *.m.    # .     t ,.-.M.0.~ M e >.B ~ 5.F.{.[.n./ 4.v                             ",
"                                  . - M.%.o $ a     . L r.8.M.K.H e e P K 4.8.S.[.D.S.-.w.Y                             ",
"                                : i z {.{.S.W 7 - . s 6.V.5.I 4.K L ! H ! 8.V.N.0.B.K.0.x #                             ",
"                                . z 5.K.}.M.8 * r s N 9.{.V.@.5.w.5.Z.V.9.H.N.0.-.B.K.X.;                               ",
"                                  O 8.B.[.=.s * d e   m 1X=X=X$X*X>X,X;X:X%X%X&XoX%XK.6.u                               ",
"                                  1 r.=.S.=.C y y 6 , n.$X.XoX*X#X-X>X,X-X>X,X<X&X>X&X5./ @                             ",
"                                > &.Z.@.D.*.B A A C `.`._.OX&X;X*XoX.XoX-X-X,X,X&X,X&Xr.O.X                             ",
"                              , S.|.[.-.N.+.K L I _.).v.k.Y.XXXXXX.XOX#X&X-X>X%X&X-X-XE #                               ",
"                              g %X}.S.0.8.+.V w.-X>X*Xf.[ s.XXXX#X@XXX.XXXoX&XoX&X=X;X>                                 ",
"                              < A.N.9.q.#.! @.$X:X$X).R.Q.@X#X$X@XXXXX`.`.XX.X_.XX+Xn .                                 ",
"                              . V o.! #.+.5.:X].E.R.g.x.@X*XXXXX@X`.].(.`.`._.^.@X$.                                    ",
"                                k U ~ U A ~.$Xv.x.T.x.x.(.@X(.(.`.`.`.].]._._. X`.H.%.$.                                ",
"                                1 P ;.^ F L.].$X>X@Xb.3.s.'.XX(.(.OX].]._.^.^.R.Q.`.=XG.                                ",
"                                  l ;.Z._.`.T.@X*X(.g.a.f.Q.@X^.^.`.`.`._. Xs.{ f.(.XX X:                               ",
"                                  = ~.:X@X*X*Xv.x.#X#XR.u.Y.XXQ.Q.).z.z./.XXs. .s.(.`.`.i                               ",
"                                  n >X$Xx.b.@XQ.g.^.<XXXv./.(.v.!.d.{ | c.j.).R.(._.!.'.b                               ",
"                                : .X@XW.<.3.E.#XOX*X*X&X@X/.E.E.!.[ ' 1.| ( u.`.^.Y.l.W.W                               ",
"                              3 ~.'.E.z.3.3.v.;X<X#XT.(.).a.3.b.!.[ } a.{ ) 1./.L.I.Q.).8.                              ",
"                            o G.).f.v.Q.E.z.T.*X&X).j.E.a.` ( 1.`.3.} d.s.] f.`.Q.Y.!.).L.o                             ",
"                            3 @Xk.l.j.Q.@X@X`.@X(.Q.T./.[ ) _ ../.).u.h.@X^./.^.Q.Y.h.R.'.4                             ",
"                            . V.W.l.j.l._.@X@XE.Q.`.*X`.` ) _ ..R.#XXXXX`./.Q.Q.I.l.U.).q.$                             ",
"                              h `.l.h.l.l.Y.Y.h.Y.^.#X`.] ) ' 3./._._./.!.Y.Y.I.l.W.P.m .                               ",
"                                C.W.l.P.l.l.I.I.Q.Q.^._.s.<.u.`.OX_.Y.T.U.P.l.W.!.&.>                                   ",
"                                Q ).l.l.l.l.I./.!.I.d.R.`./.XXOX_.!.E.Y.j.R.!.r.f                                       ",
"                                3 ).U.l.l.j.h.Q.Y.z.{ { W._.`._.Q.Q.Q.W.W.L.n .                                         ",
"                                  W c.s.U.l.j.s./.R._ _ b._.!.Q.R.R.).).&.:                                             ",
"                                    R c.U.Y.2.` z.k.{  .R._.!.U.!.W.r.f                                                 ",
"                                    $ l./.U.} ) 2.!.a.k.T.T.W.W.I.Q o                                                   ",
"                                    . e.OXz.] ) 1.Y.!.s.z.W.b.O.>                                                       ",
"                                      N. XI.u.<.d.P.k.| d.M.i                                                           ",
"                                    > ~.Y.h.I.~.L.Y.W.<.c                                                               ",
"                                    h (.p.r.p.h.U.p.R @                                                                 ",
"                                    b U.y.y.j.p.W :                                                                     ",
"                                    2 l.i.a.@.2                                                                         ",
"                                    . ;.,.i                                                                             ",
"                                      @                                                                                 ",
"                                                                                                                        ",
"                                                                                                                        ",
"                                                                                                                        ",
"                                                                                                                        ",
"                                                                                                                        ",
"                                                                                                                        ",
"                                                                                                                        ",
"                                                                                                                        ",
"                                                                                                                        ",
"                                                                                                                        "
};
